<svg xmlns="http://www.w3.org/2000/svg" viewBox="0 0 410.8 3.78" width="410" height="4">
  <title>mgb-wave-pattern</title>
  <path d="M0,.11H0V1.89c.53,0,.77.21,1.22.64A3.26,3.26,0,0,0,3.66,3.67,3.26,3.26,0,0,0,6.11,2.53c.45-.43.68-.64,1.22-.64s.77.21,1.22.64a3.19,3.19,0,0,0,4.89,0c.44-.43.68-.64,1.22-.64s.77.21,1.22.64a3.3,3.3,0,0,0,2.28,1.14h.17a3.3,3.3,0,0,0,2.28-1.14c.44-.43.68-.64,1.22-.64s.77.21,1.22.64a3.27,3.27,0,0,0,2.45,1.14,3.26,3.26,0,0,0,2.44-1.14c.44-.43.68-.64,1.22-.64s.77.21,1.22.64a3.19,3.19,0,0,0,4.89,0c.44-.43.68-.64,1.22-.64s.77.21,1.22.64a3.3,3.3,0,0,0,2.28,1.14h.17a3.3,3.3,0,0,0,2.28-1.14c.44-.43.68-.64,1.22-.64s.77.21,1.22.64a3.19,3.19,0,0,0,4.89,0c.44-.43.68-.64,1.22-.64s.77.21,1.22.64a3.19,3.19,0,0,0,4.89,0c.44-.43.68-.64,1.22-.64s.77.21,1.22.64a3.29,3.29,0,0,0,2.28,1.14h.17A3.29,3.29,0,0,0,64.2,2.53c.45-.43.68-.64,1.22-.64s.77.21,1.22.64a3.19,3.19,0,0,0,4.89,0c.44-.43.68-.64,1.22-.64s.77.21,1.22.64a3.19,3.19,0,0,0,4.89,0c.44-.43.68-.64,1.21-.64s.77.21,1.22.64a3.3,3.3,0,0,0,2.28,1.14h.17A3.29,3.29,0,0,0,86,2.53c.44-.43.68-.64,1.22-.64s.77.21,1.22.64a3.19,3.19,0,0,0,4.89,0c.44-.43.68-.64,1.22-.64s.77.21,1.22.64a3.19,3.19,0,0,0,4.89,0c.44-.43.68-.64,1.22-.64s.77.21,1.22.64a3.29,3.29,0,0,0,2.28,1.14h.17a3.3,3.3,0,0,0,2.28-1.14c.44-.43.68-.64,1.22-.64s.77.21,1.22.64a3.19,3.19,0,0,0,4.89,0c.44-.43.68-.64,1.22-.64s.77.21,1.22.64a3.19,3.19,0,0,0,4.89,0c.44-.43.68-.64,1.22-.64s.77.21,1.22.64a3.3,3.3,0,0,0,2.28,1.14h.17a3.29,3.29,0,0,0,2.28-1.14c.45-.43.68-.64,1.22-.64s.77.21,1.22.64a3.26,3.26,0,0,0,2.45,1.14,3.26,3.26,0,0,0,2.44-1.14c.45-.43.68-.64,1.22-.64s.77.21,1.22.64a3.19,3.19,0,0,0,4.89,0c.44-.43.68-.64,1.22-.64s.77.21,1.21.64A3.3,3.3,0,0,0,149,3.67h.17a3.3,3.3,0,0,0,2.28-1.14c.44-.43.68-.64,1.22-.64s.77.21,1.22.64a3.27,3.27,0,0,0,2.45,1.14,3.26,3.26,0,0,0,2.44-1.14c.44-.43.68-.64,1.22-.64s.77.21,1.22.64a3.19,3.19,0,0,0,4.89,0c.44-.43.68-.64,1.22-.64s.77.21,1.21.64a3.3,3.3,0,0,0,2.28,1.14h.17a3.3,3.3,0,0,0,2.28-1.14c.44-.43.68-.64,1.22-.64s.77.21,1.22.64a3.19,3.19,0,0,0,4.89,0c.44-.43.68-.64,1.22-.64s.77.21,1.22.64a3.19,3.19,0,0,0,4.89,0c.44-.43.68-.64,1.22-.64s.77.21,1.21.64a3.29,3.29,0,0,0,2.28,1.14h.17A3.29,3.29,0,0,0,195,2.53c.44-.43.68-.64,1.21-.64s.77.21,1.21.64a3.26,3.26,0,0,0,2.45,1.14h0a3.26,3.26,0,0,0,2.45-1.14c.44-.43.68-.64,1.21-.64s.77.21,1.21.64a3.26,3.26,0,0,0,2.45,1.14h0a3.26,3.26,0,0,0,2.45-1.14c.44-.43.68-.64,1.21-.64s.77.21,1.21.64c.14.14.31.29.5.44l.28.2.14.09a3,3,0,0,0,.51.23l.11,0a3,3,0,0,0,.68.12h.24a3.3,3.3,0,0,0,2.27-1.13c.45-.43.68-.64,1.22-.64s.77.21,1.22.64a3.19,3.19,0,0,0,4.89,0c.45-.43.68-.64,1.22-.64s.77.21,1.22.64a3.19,3.19,0,0,0,4.89,0c.44-.43.68-.64,1.21-.64s.77.21,1.22.64a3.29,3.29,0,0,0,2.28,1.14h.17a3.29,3.29,0,0,0,2.28-1.14c.44-.43.68-.64,1.22-.64s.77.21,1.22.64a3.27,3.27,0,0,0,2.45,1.14A3.26,3.26,0,0,0,246,2.53c.44-.43.68-.64,1.22-.64s.77.21,1.22.64a3.19,3.19,0,0,0,4.89,0c.45-.43.68-.64,1.22-.64s.77.21,1.21.64A3.3,3.3,0,0,0,258,3.67h.17a3.29,3.29,0,0,0,2.28-1.14c.45-.43.68-.64,1.22-.64s.77.21,1.22.64a3.26,3.26,0,0,0,2.45,1.14,3.26,3.26,0,0,0,2.45-1.14c.44-.43.68-.64,1.22-.64s.77.21,1.22.64a3.19,3.19,0,0,0,4.89,0c.44-.43.68-.64,1.22-.64s.77.21,1.21.64a3.3,3.3,0,0,0,2.28,1.14H280a3.3,3.3,0,0,0,2.28-1.14c.44-.43.68-.64,1.22-.64s.77.21,1.22.64a3.19,3.19,0,0,0,4.89,0c.44-.43.68-.64,1.22-.64s.77.21,1.22.64a3.19,3.19,0,0,0,4.89,0c.44-.43.68-.64,1.21-.64s.77.21,1.21.64a3.3,3.3,0,0,0,2.28,1.14h.17a3.29,3.29,0,0,0,2.28-1.14c.44-.43.68-.64,1.22-.64s.77.21,1.22.64a3.19,3.19,0,0,0,4.89,0c.44-.43.68-.64,1.22-.64s.77.21,1.22.64a3.19,3.19,0,0,0,4.89,0c.45-.43.68-.64,1.22-.64s.77.21,1.21.64a3.29,3.29,0,0,0,2.28,1.14h.17a3.29,3.29,0,0,0,2.28-1.14c.45-.43.68-.64,1.22-.64s.77.21,1.22.64a3.19,3.19,0,0,0,4.89,0c.44-.43.68-.64,1.21-.64s.77.21,1.22.64a3.26,3.26,0,0,0,2.45,1.14,3.26,3.26,0,0,0,2.45-1.14c.44-.43.68-.64,1.22-.64s.77.21,1.21.64a3.3,3.3,0,0,0,2.28,1.14h.17a3.29,3.29,0,0,0,2.28-1.14c.45-.43.68-.64,1.22-.64s.77.21,1.22.64a3.19,3.19,0,0,0,4.89,0c.45-.43.68-.64,1.22-.64s.77.21,1.22.64a3.19,3.19,0,0,0,4.89,0c.44-.43.68-.64,1.21-.64s.77.21,1.21.64A3.3,3.3,0,0,0,367,3.67h.17a3.3,3.3,0,0,0,2.28-1.14c.45-.43.68-.64,1.22-.64s.77.21,1.22.64a3.27,3.27,0,0,0,2.45,1.14,3.26,3.26,0,0,0,2.45-1.14c.45-.43.68-.64,1.22-.64s.77.21,1.22.64a3.19,3.19,0,0,0,4.89,0c.45-.43.68-.64,1.22-.64s.77.21,1.21.64a3.3,3.3,0,0,0,2.28,1.14H389a3.29,3.29,0,0,0,2.28-1.14c.45-.43.68-.64,1.22-.64s.77.21,1.22.64a3.26,3.26,0,0,0,2.45,1.14,3.26,3.26,0,0,0,2.45-1.14c.44-.43.68-.64,1.21-.64s.77.21,1.22.64a3.19,3.19,0,0,0,4.89,0c.44-.43.68-.64,1.22-.64s.77.21,1.21.64a3.26,3.26,0,0,0,2.45,1.14V1.89c-.53,0-.77-.21-1.21-.64a3.19,3.19,0,0,0-4.89,0c-.44.43-.68.64-1.21.64s-.77-.21-1.22-.64a3.19,3.19,0,0,0-4.89,0c-.44.43-.68.64-1.22.64s-.77-.21-1.22-.64a3.19,3.19,0,0,0-4.89,0,1.33,1.33,0,0,1-2.26,0,3.19,3.19,0,0,0-4.89,0c-.45.43-.68.64-1.22.64s-.77-.21-1.22-.64a3.19,3.19,0,0,0-4.89,0c-.44.43-.68.64-1.21.64s-.77-.21-1.22-.64a3.19,3.19,0,0,0-4.89,0,1.6,1.6,0,0,1-1.13.64c-.47,0-.71-.23-1.13-.64a3.19,3.19,0,0,0-4.89,0c-.44.43-.68.64-1.22.64s-.77-.21-1.22-.64a3.19,3.19,0,0,0-4.89,0c-.45.43-.68.64-1.22.64s-.77-.21-1.22-.64a3.19,3.19,0,0,0-4.89,0,1.33,1.33,0,0,1-2.27,0,3.19,3.19,0,0,0-4.89,0c-.44.43-.68.64-1.21.64s-.77-.21-1.22-.64a3.19,3.19,0,0,0-4.89,0c-.44.43-.68.64-1.21.64s-.77-.21-1.22-.64a3.19,3.19,0,0,0-4.89,0,1.33,1.33,0,0,1-2.27,0,3.19,3.19,0,0,0-4.89,0c-.45.43-.68.64-1.22.64s-.77-.21-1.22-.64a3.19,3.19,0,0,0-4.89,0c-.44.43-.68.64-1.21.64s-.77-.21-1.22-.64a3.19,3.19,0,0,0-4.89,0,1.6,1.6,0,0,1-1.13.64,1.6,1.6,0,0,1-1.13-.64,3.19,3.19,0,0,0-4.89,0c-.44.43-.68.64-1.22.64s-.77-.21-1.22-.64a3.19,3.19,0,0,0-4.89,0c-.45.43-.68.64-1.22.64s-.77-.21-1.22-.64a3.19,3.19,0,0,0-4.89,0,1.6,1.6,0,0,1-1.13.64,1.6,1.6,0,0,1-1.13-.64,3.19,3.19,0,0,0-4.89,0c-.44.43-.68.64-1.21.64s-.77-.21-1.22-.64a3.19,3.19,0,0,0-4.89,0c-.44.43-.68.64-1.22.64s-.77-.21-1.22-.64a3.19,3.19,0,0,0-4.89,0,1.33,1.33,0,0,1-2.26,0,3.19,3.19,0,0,0-4.89,0c-.45.43-.68.64-1.22.64s-.77-.21-1.22-.64a3.19,3.19,0,0,0-4.89,0c-.44.43-.68.64-1.21.64s-.77-.21-1.22-.64a3.19,3.19,0,0,0-4.89,0,1.6,1.6,0,0,1-1.13.64c-.47,0-.71-.23-1.13-.64a3.19,3.19,0,0,0-4.89,0c-.44.43-.68.64-1.22.64s-.77-.21-1.22-.64a3.19,3.19,0,0,0-4.89,0c-.45.43-.68.64-1.22.64s-.77-.21-1.22-.64a3.19,3.19,0,0,0-4.89,0,1.62,1.62,0,0,1-1.11.63l-.14,0-.17,0L214,1.75l-.05,0a3.21,3.21,0,0,1-.57-.48A3.26,3.26,0,0,0,210.9.11h0a3.26,3.26,0,0,0-2.45,1.14c-.44.43-.68.64-1.21.64s-.77-.21-1.21-.64A3.26,3.26,0,0,0,203.57.11h0a3.26,3.26,0,0,0-2.45,1.14c-.44.43-.68.64-1.21.64s-.77-.21-1.21-.64A3.26,3.26,0,0,0,196.25.11h0a3.26,3.26,0,0,0-2.44,1.14,1.33,1.33,0,0,1-2.26,0,3.19,3.19,0,0,0-4.89,0c-.44.43-.68.64-1.21.64s-.77-.21-1.22-.64a3.19,3.19,0,0,0-4.89,0c-.44.43-.68.64-1.21.64s-.77-.21-1.22-.64a3.19,3.19,0,0,0-4.89,0,1.32,1.32,0,0,1-2.26,0,3.19,3.19,0,0,0-4.89,0c-.45.43-.68.64-1.22.64s-.77-.21-1.22-.64a3.19,3.19,0,0,0-4.89,0c-.44.43-.68.64-1.22.64s-.77-.21-1.22-.64a3.19,3.19,0,0,0-4.89,0,1.6,1.6,0,0,1-1.13.64,1.6,1.6,0,0,1-1.13-.64,3.19,3.19,0,0,0-4.89,0c-.44.43-.68.64-1.22.64s-.77-.21-1.22-.64a3.19,3.19,0,0,0-4.89,0c-.44.43-.68.64-1.22.64s-.77-.21-1.22-.64a3.19,3.19,0,0,0-4.89,0,1.6,1.6,0,0,1-1.13.64,1.6,1.6,0,0,1-1.13-.64,3.19,3.19,0,0,0-4.89,0c-.44.43-.68.64-1.21.64s-.77-.21-1.22-.64a3.19,3.19,0,0,0-4.89,0c-.44.43-.68.64-1.22.64s-.77-.21-1.22-.64a3.19,3.19,0,0,0-4.89,0,1.33,1.33,0,0,1-2.26,0,3.19,3.19,0,0,0-4.89,0c-.44.43-.68.64-1.22.64s-.77-.21-1.22-.64a3.19,3.19,0,0,0-4.89,0c-.44.43-.68.64-1.22.64s-.77-.21-1.22-.64a3.19,3.19,0,0,0-4.89,0,1.32,1.32,0,0,1-2.26,0,3.19,3.19,0,0,0-4.89,0c-.44.43-.68.64-1.22.64s-.77-.21-1.22-.64a3.19,3.19,0,0,0-4.89,0c-.44.43-.68.64-1.22.64s-.77-.21-1.22-.64a3.19,3.19,0,0,0-4.89,0,1.6,1.6,0,0,1-1.13.64,1.6,1.6,0,0,1-1.13-.64,3.19,3.19,0,0,0-4.89,0c-.44.43-.68.64-1.22.64s-.77-.21-1.22-.64a3.19,3.19,0,0,0-4.89,0c-.44.43-.68.64-1.22.64s-.77-.21-1.22-.64a3.19,3.19,0,0,0-4.89,0,1.32,1.32,0,0,1-2.26,0,3.19,3.19,0,0,0-4.89,0c-.44.43-.68.64-1.22.64s-.77-.21-1.22-.64a3.19,3.19,0,0,0-4.89,0c-.44.43-.68.64-1.22.64s-.77-.21-1.22-.64a3.19,3.19,0,0,0-4.89,0,1.6,1.6,0,0,1-1.13.64,1.6,1.6,0,0,1-1.13-.64,3.19,3.19,0,0,0-4.89,0c-.44.43-.68.64-1.21.64s-.77-.21-1.22-.64a3.19,3.19,0,0,0-4.89,0c-.44.43-.68.64-1.22.64s-.77-.21-1.22-.64A3.26,3.26,0,0,0,0,.11" fill="#efefef"/>
</svg>
